<svg width="54" height="81" viewBox="0 0 54 81" fill="none" xmlns="http://www.w3.org/2000/svg">
<path d="M18.872 81H7.112C4.57333 81 2.89333 80.5893 2.072 79.768C1.32533 78.9467 0.952 77.2293 0.952 74.616V6.408C0.952 3.79466 1.32533 2.07733 2.072 1.256C2.89333 0.434663 4.57333 0.0239944 7.112 0.0239944H18.872V81ZM53.48 65.32V74.84C53.48 77.3787 53.0693 79.0587 52.248 79.88C51.4267 80.6267 49.7093 81 47.096 81H23.352V65.32H53.48ZM46.76 32.28V39C46.76 41.688 46.4987 43.4053 45.976 44.152C45.4533 44.824 43.96 45.16 41.496 45.16H23.352V32.28H46.76ZM52.36 0.0239944V9.544C52.36 12.0827 51.9493 13.7627 51.128 14.584C50.3067 15.3307 48.5893 15.704 45.976 15.704H23.352V0.0239944H52.36Z" fill="#595959"/>
</svg>
